<?xml version="1.0" encoding="UTF-8" standalone="no"?>
<svg
   xmlns:dc="http://purl.org/dc/elements/1.1/"
   xmlns:cc="http://creativecommons.org/ns#"
   xmlns:rdf="http://www.w3.org/1999/02/22-rdf-syntax-ns#"
   xmlns:svg="http://www.w3.org/2000/svg"
   xmlns="http://www.w3.org/2000/svg"
   xmlns:sodipodi="http://sodipodi.sourceforge.net/DTD/sodipodi-0.dtd"
   xmlns:inkscape="http://www.inkscape.org/namespaces/inkscape"
   width="686.73376"
   height="1075.0978"
   id="svg2"
   version="1.1"
   inkscape:version="0.91 r13725"
   sodipodi:docname="pitch2.svg">
  <metadata
     id="metadata32">
    <rdf:RDF>
      <cc:Work
         rdf:about="">
        <dc:format>image/svg+xml</dc:format>
        <dc:type
           rdf:resource="http://purl.org/dc/dcmitype/StillImage" />
        <dc:title>soccer_field</dc:title>
      </cc:Work>
    </rdf:RDF>
  </metadata>
  <defs
     id="defs30" />
  <sodipodi:namedview
     pagecolor="#ffffff"
     bordercolor="#666666"
     borderopacity="1"
     objecttolerance="10"
     gridtolerance="10"
     guidetolerance="10"
     inkscape:pageopacity="0"
     inkscape:pageshadow="2"
     inkscape:window-width="1920"
     inkscape:window-height="1017"
     id="namedview28"
     showgrid="false"
     fit-margin-top="0"
     fit-margin-left="0"
     fit-margin-right="0"
     fit-margin-bottom="0"
     inkscape:zoom="0.70833653"
     inkscape:cx="691.98592"
     inkscape:cy="513.68325"
     inkscape:window-x="-8"
     inkscape:window-y="-8"
     inkscape:window-maximized="1"
     inkscape:current-layer="svg2" />
  <title
     id="title4">soccer_field</title>
  <!--         -->
  <!--                  -->
  <!--      -->
  <!--         -->
  <!--      -->
  <!--         -->
  <!--       -->
  <!--         -->
  <path
     style="fill:#ffffff;stroke:#000000;stroke-width:5"
     inkscape:connector-curvature="0"
     d="M 3.173927,537.98389 3.844662,1062.9834 683.8441,1062.1146 682.50263,12.11556 2.503193,12.984321 3.173927,537.98389 683.17337,537.11513 3.173927,537.98389 Z"
     id="svg_2" />
  <circle
     style="fill-opacity:0;stroke:#000000;stroke-width:5"
     cx="-537.98755"
     cy="342.4866"
     r="91.5"
     id="svg_3"
     transform="matrix(-0.00127759,-0.99999918,0.99999918,-0.00127759,0,0)" />
  <circle
     style="fill:#000000;stroke:#000000"
     cx="-537.98755"
     cy="342.4866"
     r="2"
     id="svg_4"
     transform="matrix(-0.00127759,-0.99999918,0.99999918,-0.00127759,0,0)" />
  <circle
     style="fill:#000000;stroke:#000000"
     cx="-952.98755"
     cy="342.4866"
     r="2"
     id="svg_5"
     transform="matrix(-0.00127759,-0.99999918,0.99999918,-0.00127759,0,0)" />
  <circle
     style="fill:#000000;stroke:#000000"
     cx="-122.9875"
     cy="342.4866"
     r="2"
     id="svg_6"
     transform="matrix(-0.00127759,-0.99999918,0.99999918,-0.00127759,0,0)" />
  <path
     style="fill-opacity:0;stroke:#000000;stroke-width:5"
     inkscape:connector-curvature="0"
     d="m 308.2444,1062.5945 0.0128,10 72.19996,-0.092 -0.0128,-10 -72.19996,0.092 z"
     id="svg_7" />
  <path
     style="fill-opacity:0;stroke:#000000;stroke-width:5"
     inkscape:connector-curvature="0"
     d="m 306.90293,12.595423 -0.0128,-9.9999911 72.19996,-0.09224 0.0128,9.9999911 -72.19996,0.09224 z"
     id="svg_8" />
  <path
     style="fill-opacity:0;stroke:#000000;stroke-width:5"
     inkscape:connector-curvature="0"
     d="m 253.24444,1062.6648 -0.0703,-55 182.19987,-0.2328 0.0703,55 -182.19988,0.2328 z"
     id="svg_9" />
  <path
     style="fill-opacity:0;stroke:#000000;stroke-width:5"
     inkscape:connector-curvature="0"
     d="m 251.90298,12.66569 0.0703,54.999955 182.19987,-0.232777 -0.0703,-54.999955 -182.19987,0.232777 z"
     id="svg_10" />
  <path
     style="fill-opacity:0;stroke:#000000;stroke-width:5"
     inkscape:connector-curvature="0"
     d="m 143.24453,1062.8053 -0.2108,-164.9998 402.19966,-0.51385 0.2108,164.99975 -402.19966,0.5139 z"
     id="svg_11" />
  <path
     style="fill-opacity:0;stroke:#000000;stroke-width:5"
     inkscape:connector-curvature="0"
     d="m 141.90307,12.806225 0.2108,164.999865 402.19966,-0.51385 -0.2108,-164.999862 -402.19966,0.513847 z"
     id="svg_12" />
  <path
     style="fill:#ffffff;stroke:#000000;stroke-width:5"
     inkscape:connector-curvature="0"
     d="m 270.50864,897.64264 a 91.5,91.5 0 0 1 146.24988,-0.18685 l -146.24988,0.18685 z"
     id="svg_13" />
  <path
     style="fill:#ffffff;stroke:#000000;stroke-width:5"
     inkscape:connector-curvature="0"
     d="m 269.58877,177.64323 a 91.5,91.5 0 0 0 146.24988,-0.18685 l -146.24988,0.18685 z"
     id="svg_14" />
  <path
     style="fill-opacity:0;stroke:#000000;stroke-width:5"
     inkscape:connector-curvature="0"
     d="m 13.844654,1062.9706 a 10,10 0 0 0 -10.012768,-9.9872 l 0.01278,10 9.999992,-0.013 z"
     id="svg_15" />
  <path
     style="fill-opacity:0;stroke:#000000;stroke-width:5"
     inkscape:connector-curvature="0"
     d="m 683.83133,1052.1146 a 10,10 0 0 0 -9.98722,10.0128 l 9.99999,-0.013 -0.0128,-10 z"
     id="svg_16" />
  <path
     style="fill-opacity:0;stroke:#000000;stroke-width:5"
     inkscape:connector-curvature="0"
     d="m 672.50264,12.128336 a 10,10 0 0 0 10.01277,9.987216 l -0.0128,-9.999992 -9.99999,0.01278 z"
     id="svg_17" />
  <path
     style="fill-opacity:0;stroke:#000000;stroke-width:5"
     inkscape:connector-curvature="0"
     d="m 2.515968,22.984313 a 10,10 0 0 0 9.987216,-10.012768 l -9.999991,0.01278 0.01278,9.999992 z"
     id="svg_18" />
</svg>
